<?xml version="1.0" standalone="no"?>
<!DOCTYPE svg PUBLIC "-//W3C//DTD SVG 20010904//EN"
 "http://www.w3.org/TR/2001/REC-SVG-20010904/DTD/svg10.dtd">
<svg version="1.0" xmlns="http://www.w3.org/2000/svg"
 width="260.000000pt" height="260.000000pt" viewBox="0 0 260.000000 260.000000"
 preserveAspectRatio="xMidYMid meet">
<metadata>
Created by potrace 1.11, written by Peter Selinger 2001-2013
</metadata>
<g transform="translate(0.000000,260.000000) scale(0.100000,-0.100000)"
fill="#000000" stroke="none">
<path d="M1075 2539 c-465 -90 -821 -401 -971 -845 -14 -43 -28 -90 -30 -104
-3 -14 -7 -31 -9 -38 -26 -72 -26 -460 -1 -501 3 -4 8 -23 11 -42 20 -112 101
-296 186 -420 54 -78 176 -213 235 -259 10 -8 38 -30 60 -47 23 -18 47 -33 53
-33 6 0 11 -4 11 -8 0 -13 229 -125 280 -137 8 -2 31 -9 50 -15 126 -39 394
-60 515 -40 204 34 361 91 508 186 306 197 492 476 572 859 14 64 13 330 -1
410 -24 140 -106 365 -152 418 -8 9 -12 17 -9 17 9 0 -93 144 -105 148 -4 2
-8 8 -8 13 0 13 -135 147 -185 184 -22 16 -42 32 -45 35 -13 15 -143 91 -202
119 -233 108 -524 147 -763 100z"/>
</g>
</svg>
